<svg width="24" height="24" viewBox="0 0 24 24" fill="none" xmlns="http://www.w3.org/2000/svg">
<g clip-path="url(#clip0_2222_14661)">
<path d="M12 23.5C11.6958 23.5 11.3944 23.4882 11.0963 23.465L11.0576 23.9635C10.4224 23.9142 9.80104 23.8154 9.19744 23.671L9.31379 23.1847C8.72285 23.0433 8.14964 22.8563 7.59807 22.6276L7.40655 23.0894C6.82278 22.8474 6.26227 22.5605 5.72928 22.2332L5.99093 21.8072C5.47631 21.4911 4.98841 21.1357 4.53143 20.745L4.20653 21.1251C3.72872 20.7166 3.28338 20.2713 2.87491 19.7935L3.25496 19.4686C2.8643 19.0116 2.50887 18.5237 2.19285 18.0091L1.76677 18.2707C1.43947 17.7377 1.15264 17.1772 0.910566 16.5935L1.37243 16.4019C1.1437 15.8504 0.956688 15.2772 0.815303 14.6862L0.329027 14.8026C0.184613 14.199 0.0858102 13.5776 0.0364636 12.9424L0.534962 12.9037C0.511803 12.6056 0.5 12.3042 0.5 12C0.5 11.6958 0.511803 11.3944 0.534962 11.0963L0.0364637 11.0576C0.0858104 10.4224 0.184614 9.80104 0.329027 9.19744L0.815303 9.31379C0.956688 8.72285 1.1437 8.14964 1.37243 7.59807L0.910566 7.40655C1.15264 6.82278 1.43947 6.26227 1.76677 5.72928L2.19285 5.99093C2.50887 5.47631 2.8643 4.98841 3.25496 4.53143L2.87491 4.20653C3.28338 3.72872 3.72872 3.28338 4.20654 2.87491L4.53144 3.25496C4.98841 2.8643 5.47632 2.50887 5.99093 2.19285L5.72928 1.76677C6.26227 1.43947 6.82279 1.15264 7.40655 0.910565L7.59807 1.37243C8.14964 1.1437 8.72285 0.956688 9.31379 0.815303L9.19745 0.329027C9.80105 0.184613 10.4224 0.0858102 11.0576 0.0364636L11.0963 0.534962C11.3944 0.511803 11.6958 0.5 12 0.5C12.3042 0.5 12.6056 0.511803 12.9037 0.534962L12.9424 0.0364637C13.5776 0.0858104 14.199 0.184614 14.8026 0.329027L14.6862 0.815303C15.2772 0.956688 15.8504 1.1437 16.4019 1.37243L16.5935 0.910566C17.1772 1.15264 17.7377 1.43947 18.2707 1.76677L18.0091 2.19285C18.5237 2.50887 19.0116 2.8643 19.4686 3.25496L19.7935 2.87491C20.2713 3.28338 20.7166 3.72872 21.1251 4.20654L20.745 4.53144C21.1357 4.98841 21.4911 5.47632 21.8072 5.99093L22.2332 5.72928C22.5605 6.26227 22.8474 6.82279 23.0894 7.40655L22.6276 7.59807C22.8563 8.14964 23.0433 8.72285 23.1847 9.31379L23.671 9.19745C23.8154 9.80105 23.9142 10.4224 23.9635 11.0576L23.465 11.0963C23.4882 11.3944 23.5 11.6958 23.5 12C23.5 12.3042 23.4882 12.6056 23.465 12.9037L23.9635 12.9424C23.9142 13.5776 23.8154 14.199 23.671 14.8026L23.1847 14.6862C23.0433 15.2772 22.8563 15.8504 22.6276 16.4019L23.0894 16.5935C22.8474 17.1772 22.5605 17.7377 22.2332 18.2707L21.8072 18.0091C21.4911 18.5237 21.1357 19.0116 20.745 19.4686L21.1251 19.7935C20.7166 20.2713 20.2713 20.7166 19.7935 21.1251L19.4686 20.745C19.0116 21.1357 18.5237 21.4911 18.0091 21.8072L18.2707 22.2332C17.7377 22.5605 17.1772 22.8474 16.5935 23.0894L16.4019 22.6276C15.8504 22.8563 15.2772 23.0433 14.6862 23.1847L14.8026 23.671C14.199 23.8154 13.5776 23.9142 12.9424 23.9635L12.9037 23.465C12.6056 23.4882 12.3042 23.5 12 23.5Z" fill="white" stroke="#343434" stroke-dasharray="2 2"/>
<path d="M12.3735 3V9.6525L17.9963 12.165L12.3735 3Z" fill="#343434"/>
<path d="M12.3735 3L6.75 12.165L12.3735 9.6525V3Z" fill="#828386"/>
<path d="M12.3735 16.4769V20.9971L18 13.2129L12.3735 16.4769Z" fill="#303030"/>
<path d="M12.3735 20.9971V16.4761L6.75 13.2129L12.3735 20.9971Z" fill="#828386"/>
<path d="M12.3735 15.43L17.9963 12.1653L12.3735 9.6543V15.43Z" fill="#131313"/>
<path d="M6.75 12.1653L12.3735 15.43V9.6543L6.75 12.1653Z" fill="#343434"/>
</g>
<defs>
<clipPath id="clip0_2222_14661">
<rect width="24" height="24" fill="white"/>
</clipPath>
</defs>
</svg>
